<?xml version="1.0" encoding="UTF-8"?>
<!-- Created with Inkscape (http://www.inkscape.org/) -->
<svg width="2003.1" height="297.4" version="1.1" viewBox="0 0 2003.1 297.4" xmlns="http://www.w3.org/2000/svg">
 <path d="m190.26 221.1h3.2292s1.4063-36.51 7.9688-63.281l30.208-122.55c5.9375-22.969 19.063-30.469 37.604-30.469h87.76l24.948 282.14h-79.375l-9.0625-216.2h-3.6979l-60.937 216.2h-75.99l-61.042-216.2h-3.5937l-8.3854 216.2h-79.896l24.896-282.14h85.937c18.542 0 30.677 9.2708 37.76 30.208l32.292 122.81c6.875 25.729 9.375 63.281 9.375 63.281m845.42-213.91v57.604s-49.219-9.7396-91.719-9.7396c-36.979 0.0521-73.646-0.36459-73.646 26.198 0 18.854 11.25 20.26 33.49 24.219 20.052 3.5937 68.021 8.1771 100.94 21.771 32.917 13.594 50.364 37.604 50.364 76.146 0 91.823-92.552 90.573-145.16 92.292-42.188 1.3542-121.25-9.3229-121.25-9.3229v-60.104c18.333 3.4375 82.292 9.5313 113.59 9.5313 40.99 0 59.115-6.875 59.115-23.125 0-16.042-3.0729-23.594-32.917-28.385-35.625-5.6771-77.083-12.76-105.73-27.396-22.24-11.406-41.667-31.667-41.667-75.26 0-60.625 61.458-81.354 141.46-81.615 55.208-0.15625 79.583 3.0729 113.13 7.1875m186.93 290.21c-136.98 0-142.24-53.073-142.24-89.375v-203.23h84.635v198.54c1.0937 16.927 22.76 31.302 55.469 31.302 26.042 0 36.927-5.1042 38.594-20.417v-209.38h84.792v270c-45.781 17.552-71.354 22.552-121.25 22.552m617.76-226.61h-3.2812l-72.5 216.2h-90.677l105.36-282.19h118.85l105 282.19h-90.365zm-1144-10.104v226.35h-84.688v-226.35h-90.729v-55.885h266.2v55.885zm-276.25-55.885h84.687v282.19h-84.687zm1120.7 233.33h-67.969v-182.92h66.458c20.99 0 38.958 6.4063 38.958 29.531 0 28.542-18.177 32.604-74.167 32.604v46.25c55.625 0 81.979 2.5 81.979 37.813 0 28.906-23.75 36.719-45.26 36.719m84.583-105.1v-3.2813c13.438 0 40.677-12.187 40.677-58.542 0-53.698-43.802-66.406-91.615-66.406h-186.2v282.24h184.06c70.312 0 107.08-26.771 107.08-81.979 0-39.271-19.271-71.979-54.01-72.031" fill="#0b308e"/>
</svg>
